<?xml version="1.0" encoding="UTF-8" standalone="no"?>
<!-- Created with Inkscape (http://www.inkscape.org/) -->

<svg
   width="200mm"
   height="200mm"
   viewBox="0 0 200 200"
   version="1.1"
   id="svg1"
   xml:space="preserve"
   inkscape:version="1.3.2 (091e20e, 2023-11-25, custom)"
   sodipodi:docname="DLogoCurvy.svg"
   xmlns:inkscape="http://www.inkscape.org/namespaces/inkscape"
   xmlns:sodipodi="http://sodipodi.sourceforge.net/DTD/sodipodi-0.dtd"
   xmlns="http://www.w3.org/2000/svg"
   xmlns:svg="http://www.w3.org/2000/svg"><sodipodi:namedview
     id="namedview1"
     pagecolor="#ffffff"
     bordercolor="#000000"
     borderopacity="0.25"
     inkscape:showpageshadow="2"
     inkscape:pageopacity="0.0"
     inkscape:pagecheckerboard="0"
     inkscape:deskcolor="#d1d1d1"
     inkscape:document-units="mm"
     inkscape:zoom="0.73890575"
     inkscape:cx="481.11684"
     inkscape:cy="380.96875"
     inkscape:window-width="2560"
     inkscape:window-height="1369"
     inkscape:window-x="-8"
     inkscape:window-y="-8"
     inkscape:window-maximized="1"
     inkscape:current-layer="layer1" /><defs
     id="defs1" /><g
     inkscape:label="Layer 1"
     inkscape:groupmode="layer"
     id="layer1"><path
       style="display:inline;fill:none;stroke:#ef476f;stroke-width:28;stroke-linecap:round;stroke-dasharray:none;stroke-opacity:1"
       d="m 97.904387,57.635171 -23.040931,85.074169 25.066501,4.05115 c 0,0 77.889613,14.42694 83.301763,-50.892572 C 190.07313,13.298559 33.861099,-8.070676 55.873684,86.752824"
       id="path3-5-4"
       sodipodi:nodetypes="cccsc"
       inkscape:label="path"
       inkscape:highlight-color="#ef476f" /><path
       style="display:inline;fill:none;stroke:#ffd166;stroke-width:28;stroke-linecap:round;stroke-dasharray:none;stroke-opacity:1"
       d="m 88.568248,64.527643 -23.04092,85.074177 25.06649,4.05115 c 0,0 77.889622,14.42694 83.301772,-50.89258 C 180.737,20.191033 24.524967,-1.1782039 46.537548,93.645298"
       id="path3-5-5"
       sodipodi:nodetypes="cccsc"
       inkscape:label="path"
       inkscape:highlight-color="#ffd166" /><path
       style="display:inline;fill:none;stroke:#06d6a0;stroke-width:28;stroke-linecap:round;stroke-dasharray:none;stroke-opacity:1"
       d="m 79.232106,71.42012 -23.04092,85.07416 25.06649,4.05115 c 0,0 77.889624,14.42694 83.301774,-50.89257 C 171.40086,27.083508 15.188829,5.7142722 37.201414,100.53776"
       id="path3-5"
       sodipodi:nodetypes="cccsc"
       inkscape:label="path"
       inkscape:highlight-color="#06d6a0" /><path
       style="display:inline;opacity:1;fill:none;stroke:#118ab2;stroke-width:28;stroke-linecap:round;stroke-dasharray:none;stroke-opacity:1"
       d="m 69.89597,78.312595 -23.040919,85.074155 25.066495,4.05115 c 0,0 77.889614,14.42694 83.301764,-50.89258 C 162.06472,33.975981 5.852695,12.606748 27.865279,107.43023"
       id="path3"
       sodipodi:nodetypes="cccsc"
       inkscape:label="path"
       inkscape:highlight-color="#118ab2" /><path
       style="display:inline;fill:none;stroke:#000000;stroke-width:28;stroke-linecap:round;stroke-dasharray:none;stroke-opacity:1;fill-opacity:1"
       d="m 60.559833,85.205065 -23.04092,85.074155 25.06649,4.05115 c 0,0 77.889637,14.42694 83.301787,-50.89257 C 152.7286,40.868453 -3.4834408,19.499218 18.529144,114.32271"
       id="path3-5-59"
       sodipodi:nodetypes="cccsc"
       inkscape:label="path"
       inkscape:highlight-color="#000000" /></g></svg>
